<?xml version="1.0" encoding="iso-8859-1"?>
<!-- Generator: Adobe Illustrator 18.0.0, SVG Export Plug-In . SVG Version: 6.00 Build 0)  -->
<!DOCTYPE svg PUBLIC "-//W3C//DTD SVG 1.1//EN" "http://www.w3.org/Graphics/SVG/1.1/DTD/svg11.dtd">
<svg version="1.1" id="Capa_1" xmlns="http://www.w3.org/2000/svg" xmlns:xlink="http://www.w3.org/1999/xlink" x="0px" y="0px"
	 viewBox="0 0 396.891 396.891" style="enable-background:new 0 0 396.891 396.891;" xml:space="preserve">
<g>
	<g>
		<path style="fill:none;" d="M110.787,208.066h-0.055C110.753,208.295,110.771,208.249,110.787,208.066z"/>
		<path style="fill:none;" d="M352.324,171.388h-67.31c-0.523,0-1.046-0.034-1.565-0.103c-7.7-1.013-17.12-3.204-21.649-11.22
			c-4.972-8.797-1.101-17.676,3.383-27.957c5.49-12.59,13.786-31.615,12.34-60.891c-0.005-0.1,0.003-0.196,0-0.295
			c-0.001-0.1-0.015-0.197-0.015-0.297c0-10.75-8.746-19.497-19.497-19.497c-10.737,0-19.474,8.726-19.495,19.458
			c0.875,32.074-4.58,38.73-27.604,61.479c-2.097,2.07-4.365,4.312-6.818,6.766c-23.576,23.576-26.215,57.729-26.239,58.07
			c-0.439,6.287-5.668,11.164-11.971,11.164h-55.016c0,0-0.006,112.157-0.007,112.248h50.104c5.234,0,23.068,0.668,32.774,9.266
			c3.689,3.268,5.979,6.406,7.636,9.049c4.643,7.397,13.907,6.879,14.786,6.893c0,0,107.852-0.298,115.206-0.839
			c10.249-0.753,17.917-4.661,22.793-11.616c3.407-4.861,4.341-9.668,4.349-9.713c4.453-29.243,15.688-109.824,14.279-131.646
			C371.756,175.732,356.121,172.048,352.324,171.388z"/>
		<path style="fill:#73D0F4;" d="M78.867,202.933H32c-4.411,0-8,3.589-8,8v109.125c0,4.411,3.589,8,8,8h46.867c4.411,0,8-3.589,8-8
			V210.933C86.867,206.522,83.278,202.933,78.867,202.933z"/>
		<path style="fill:#3D6889;" d="M396.737,190.159c-1.933-29.924-28.345-41.004-42.041-42.683c-0.483-0.06-0.972-0.089-1.459-0.089
			h-67.401c-0.357-0.052-0.693-0.104-1.007-0.156c0.702-1.745,1.575-3.746,2.353-5.531c5.997-13.753,16.034-36.771,14.311-71.666
			c0-0.002-0.001-0.004-0.001-0.006c-0.322-23.709-19.697-42.899-43.481-42.899c-23.984,0-43.497,19.513-43.497,43.497
			c0,0.058,0.008,0.113,0.009,0.171c0.001,0.058-0.006,0.112-0.004,0.17c0.657,23.147-0.137,23.931-20.475,44.024
			c-2.129,2.104-4.432,4.379-6.923,6.869c-20.809,20.811-28.684,47.407-31.588,62.205H96.217c-5.003-3.242-10.958-5.133-17.35-5.133
			H32c-17.645,0-32,14.355-32,32v109.125c0,17.645,14.356,32,32,32h46.867c7.945,0,15.217-2.917,20.817-7.727h62.171
			c6.521,0.153,13.356,0.513,15.969,3.215c1.461,1.294,2.393,2.7,3.727,4.614c12.127,17.381,30.377,17.301,34.327,17.361
			c0.061,0.002,0.123,0,0.185,0c0,0,109.688,0.543,117.063,0c34.305-2.522,47.13-29.298,49.113-42.59
			C382.908,322.538,398.602,219.028,396.737,190.159z M86.867,320.058c0,4.411-3.589,8-8,8H32c-4.411,0-8-3.589-8-8V210.933
			c0-4.411,3.589-8,8-8h46.867c4.411,0,8,3.589,8,8V320.058z M110.732,208.066h0.055
			C110.771,208.249,110.753,208.295,110.732,208.066z M358.508,323.353c-0.008,0.045-0.941,4.852-4.349,9.713
			c-4.876,6.955-12.544,10.863-22.793,11.616c-7.355,0.541-115.206,0.839-115.206,0.839c-0.879-0.014-10.143,0.504-14.786-6.893
			c-1.657-2.643-3.946-5.78-7.636-9.049c-9.706-8.598-27.54-9.266-32.774-9.266H110.86c0.001-0.091,0.007-112.248,0.007-112.248
			h55.016c6.303,0,11.531-4.877,11.971-11.164c0.024-0.342,2.663-34.494,26.239-58.07c2.453-2.454,4.722-4.695,6.818-6.766
			c23.024-22.748,28.479-29.404,27.604-61.479c0.021-10.732,8.758-19.458,19.495-19.458c10.751,0,19.497,8.747,19.497,19.497
			c0,0.1,0.014,0.197,0.015,0.297c0.003,0.099-0.005,0.195,0,0.295c1.446,29.275-6.85,48.301-12.34,60.891
			c-4.483,10.281-8.354,19.16-3.383,27.957c4.529,8.016,13.949,10.207,21.649,11.22c0.52,0.068,1.042,0.103,1.565,0.103h67.31
			c3.797,0.66,19.432,4.344,20.463,20.318C374.196,213.528,362.961,294.11,358.508,323.353z"/>
	</g>
</g>
<g>
</g>
<g>
</g>
<g>
</g>
<g>
</g>
<g>
</g>
<g>
</g>
<g>
</g>
<g>
</g>
<g>
</g>
<g>
</g>
<g>
</g>
<g>
</g>
<g>
</g>
<g>
</g>
<g>
</g>
</svg>
